<svg width="106" height="76" viewBox="0 0 106 76" fill="none" xmlns="http://www.w3.org/2000/svg">
<g opacity="0.8" filter="url(#filter0_d_0_1125)">
<path d="M27.7403 45.2281C28.661 45.2281 29.5522 45.1594 30.4141 45.0221C31.2759 44.8847 32.0986 44.6591 32.8821 44.3452L34.1455 52.2612C32.9507 52.5358 31.6971 52.7516 30.3847 52.9086C29.0919 53.0655 27.7697 53.144 26.4182 53.144C23.8718 53.144 21.531 52.8105 19.396 52.1435C17.2609 51.4568 15.4001 50.4367 13.8135 49.083C12.2464 47.7098 11.0222 46.0128 10.1408 43.9921C9.2789 41.9715 8.84797 39.6173 8.84797 36.9296V26.6301C8.84797 23.7658 9.28869 21.2547 10.1701 19.0967C11.0712 16.9191 12.3444 15.0946 13.9898 13.6232C15.6351 12.1519 17.5841 11.0434 19.8367 10.298C22.1089 9.55246 24.6161 9.17972 27.3584 9.17972C28.4945 9.17972 29.6306 9.268 30.7667 9.44456C31.9223 9.60151 33.0486 9.81731 34.1455 10.092L32.8821 18.0373C32.1966 17.7627 31.4131 17.5469 30.5316 17.3899C29.6697 17.2133 28.8275 17.1251 28.0048 17.1251C26.5945 17.1251 25.3409 17.3016 24.2439 17.6548C23.147 17.9883 22.2264 18.5278 21.4821 19.2733C20.7377 20.0187 20.1697 20.9898 19.7779 22.1865C19.3862 23.3833 19.1903 24.8448 19.1903 26.5712V36.9296C19.1903 38.5971 19.396 39.9704 19.8073 41.0494C20.2187 42.1284 20.7965 42.972 21.5408 43.5801C22.3047 44.1883 23.2058 44.6199 24.2439 44.8749C25.3017 45.1104 26.4671 45.2281 27.7403 45.2281ZM28.328 24.6584V29.3374H4V24.6584H28.328ZM28.328 32.9275V37.6358H4V32.9275H28.328Z" fill="#C4EE4A"/>
<path d="M57.2101 9.73883L42.5781 56.2633H35.5265L50.1585 9.73883H57.2101Z" fill="#C4EE4A"/>
<path d="M78.5118 3V11.5633H73.8401V3H78.5118ZM77.9242 51.0546V59H73.2525V51.0546H77.9242ZM79.8927 41.226C79.8927 40.147 79.7262 39.2543 79.3932 38.5481C79.0602 37.8418 78.5216 37.2239 77.7773 36.6942C77.0329 36.1645 76.0437 35.6348 74.8097 35.1051C72.2045 34.0457 69.903 32.9569 67.905 31.8387C65.9267 30.7204 64.3694 29.3276 63.2333 27.66C62.1168 25.9925 61.5586 23.8247 61.5586 21.1566C61.5586 18.7239 62.156 16.6052 63.3509 14.8003C64.5653 12.9954 66.2303 11.6026 68.3457 10.6217C70.4808 9.62112 72.9391 9.12086 75.7205 9.12086C77.836 9.12086 79.7654 9.43475 81.5087 10.0625C83.252 10.6903 84.7603 11.6026 86.0335 12.7993C87.3067 13.9764 88.2861 15.4281 88.9716 17.1545C89.6572 18.8613 90 20.8035 90 22.9811H80.0984C80.0984 21.8628 79.9809 20.9016 79.7458 20.0972C79.5303 19.2929 79.2169 18.6357 78.8056 18.1256C78.3943 17.6155 77.9144 17.2428 77.3659 17.0074C76.8175 16.7523 76.22 16.6248 75.5736 16.6248C74.5942 16.6248 73.8009 16.8406 73.1937 17.2722C72.5865 17.6842 72.1458 18.2335 71.8715 18.9201C71.5973 19.6068 71.4602 20.3719 71.4602 21.2155C71.4602 22.0983 71.6071 22.8732 71.9009 23.5402C72.2143 24.1876 72.7432 24.7958 73.4875 25.3647C74.2319 25.914 75.2504 26.4829 76.5432 27.0715C79.0896 28.1505 81.3618 29.2687 83.3598 30.4262C85.3577 31.5836 86.9247 33.006 88.0608 34.6931C89.2165 36.3607 89.7943 38.5187 89.7943 41.1671C89.7943 43.7175 89.1969 45.8951 88.0021 47.6999C86.8072 49.4852 85.1422 50.8487 83.0072 51.7903C80.8721 52.732 78.4041 53.2028 75.603 53.2028C73.7226 53.2028 71.852 52.9576 69.9911 52.4672C68.1499 51.9767 66.4653 51.1822 64.9375 50.0836C63.4292 48.9653 62.2246 47.4841 61.3235 45.64C60.4225 43.7959 59.972 41.53 59.972 38.8424H69.8736C69.8736 40.1568 70.0303 41.2554 70.3437 42.1382C70.6571 43.021 71.0782 43.7273 71.6071 44.257C72.1556 44.767 72.7726 45.1398 73.4582 45.3752C74.1437 45.591 74.8587 45.6989 75.603 45.6989C76.602 45.6989 77.4149 45.5027 78.0417 45.1104C78.6685 44.6984 79.1288 44.1589 79.4226 43.4919C79.736 42.8052 79.8927 42.0499 79.8927 41.226Z" fill="#C4EE4A"/>
</g>
<defs>
<filter id="filter0_d_0_1125" x="0" y="0" width="106" height="76" filterUnits="userSpaceOnUse" color-interpolation-filters="sRGB">
<feFlood flood-opacity="0" result="BackgroundImageFix"/>
<feColorMatrix in="SourceAlpha" type="matrix" values="0 0 0 0 0 0 0 0 0 0 0 0 0 0 0 0 0 0 127 0" result="hardAlpha"/>
<feOffset dx="6" dy="7"/>
<feGaussianBlur stdDeviation="5"/>
<feComposite in2="hardAlpha" operator="out"/>
<feColorMatrix type="matrix" values="0 0 0 0 0 0 0 0 0 0 0 0 0 0 0 0 0 0 0.25 0"/>
<feBlend mode="normal" in2="BackgroundImageFix" result="effect1_dropShadow_0_1125"/>
<feBlend mode="normal" in="SourceGraphic" in2="effect1_dropShadow_0_1125" result="shape"/>
</filter>
</defs>
</svg>
