<svg width="217" height="115" viewBox="0 0 217 115" fill="none" xmlns="http://www.w3.org/2000/svg">
<g filter="url(#filter0_d_0_1126)">
<path d="M26.086 41.5838H36.4646C39.1225 41.5838 41.2952 41.1185 42.9828 40.1877C44.7126 39.2147 45.9993 37.8608 46.8431 36.1263C47.6869 34.3494 48.1088 32.2552 48.1088 29.8437C48.1088 27.9822 47.708 26.2688 46.9064 24.7034C46.147 23.1381 44.9657 21.89 43.3625 20.9593C41.7593 19.9862 39.7131 19.4997 37.224 19.4997C35.5364 19.4997 33.891 19.8593 32.2878 20.5785C30.6847 21.2554 29.3557 22.2285 28.301 23.4977C27.2884 24.7669 26.7822 26.3111 26.7822 28.1303H5.39224C5.39224 22.8842 6.82667 18.3997 9.69554 14.6767C12.6066 10.9114 16.4247 8.03451 21.1499 6.04609C25.9173 4.01536 31.0433 3 36.5279 3C43.0672 3 48.8049 4.01536 53.741 6.04609C58.6772 8.03451 62.5164 10.996 65.2587 14.9305C68.0432 18.8228 69.4354 23.6457 69.4354 29.3995C69.4354 32.5725 68.6971 35.5551 67.2205 38.3474C65.7439 41.1396 63.6766 43.5934 61.0187 45.7088C58.3607 47.8241 55.2387 49.4952 51.6527 50.7221C48.1088 51.9067 44.2274 52.499 40.0085 52.499H26.086V41.5838ZM26.086 57.5124V46.851H40.0085C44.6071 46.851 48.8049 47.3799 52.6019 48.4375C56.3989 49.4529 59.6686 50.976 62.4109 53.0067C65.1532 55.0374 67.2627 57.5547 68.7393 60.5584C70.2159 63.5199 70.9542 66.9256 70.9542 70.7756C70.9542 75.0909 70.0893 78.9408 68.3596 82.3253C66.6298 85.7099 64.2039 88.5656 61.082 90.8924C57.96 93.2193 54.3106 94.9962 50.1339 96.2231C45.9571 97.4077 41.4218 98 36.5279 98C32.6886 98 28.8494 97.4923 25.0102 96.477C21.171 95.4193 17.6693 93.8116 14.5051 91.654C11.3409 89.454 8.78847 86.6618 6.84777 83.2772C4.94926 79.8504 4 75.7678 4 71.0294H25.3899C25.3899 72.9755 25.9173 74.7524 26.972 76.3601C28.0689 77.9254 29.5244 79.1735 31.3386 80.1042C33.1527 81.035 35.1145 81.5003 37.224 81.5003C39.8397 81.5003 42.0546 81.0138 43.8688 80.0407C45.7251 79.0254 47.1384 77.6716 48.1088 75.9793C49.0791 74.287 49.5643 72.4044 49.5643 70.3313C49.5643 67.2006 49.0369 64.7045 47.9822 62.843C46.9697 60.9815 45.472 59.6277 43.4891 58.7816C41.5484 57.9354 39.2069 57.5124 36.4646 57.5124H26.086Z" fill="#C4EE4A"/>
<path d="M135.819 42.0915V58.9719C135.819 65.6141 135.038 71.389 133.477 76.2966C131.959 81.2042 129.765 85.2656 126.896 88.481C124.069 91.6963 120.694 94.0866 116.77 95.652C112.847 97.2173 108.523 98 103.797 98C100 98 96.4564 97.5135 93.1656 96.5404C89.8749 95.525 86.9006 94.002 84.2426 91.9713C81.6269 89.8982 79.3698 87.3175 77.4713 84.2291C75.5728 81.1407 74.1172 77.5023 73.1047 73.314C72.0922 69.0833 71.5859 64.3026 71.5859 58.9719V42.0915C71.5859 35.407 72.3453 29.6322 73.8641 24.7669C75.4251 19.8593 77.64 15.7978 80.5089 12.5825C83.3778 9.36718 86.774 6.97684 90.6976 5.41149C94.6212 3.84614 98.9456 3.06346 103.671 3.06346C107.468 3.06346 110.991 3.57114 114.239 4.58651C117.53 5.55956 120.504 7.08261 123.162 9.15564C125.82 11.1864 128.077 13.7459 129.934 16.8343C131.832 19.9227 133.288 23.5823 134.3 27.813C135.313 32.0013 135.819 36.7609 135.819 42.0915ZM114.492 61.5738V39.3627C114.492 36.4012 114.324 33.8205 113.986 31.6206C113.691 29.4206 113.227 27.5591 112.594 26.0361C112.003 24.513 111.265 23.2861 110.379 22.3554C109.493 21.3823 108.48 20.6843 107.341 20.2612C106.244 19.7958 105.021 19.5631 103.671 19.5631C101.983 19.5631 100.464 19.9227 99.1143 20.642C97.8065 21.3189 96.6884 22.4188 95.7603 23.9419C94.8321 25.4649 94.1149 27.4957 93.6086 30.0341C93.1446 32.5725 92.9125 35.682 92.9125 39.3627V61.5738C92.9125 64.5776 93.0602 67.2006 93.3555 69.4429C93.693 71.6428 94.1571 73.5255 94.7477 75.0909C95.3806 76.6139 96.14 77.8619 97.026 78.835C97.9119 79.7657 98.9245 80.4427 100.064 80.8657C101.203 81.2888 102.447 81.5003 103.797 81.5003C105.443 81.5003 106.919 81.1619 108.227 80.485C109.535 79.8081 110.653 78.7081 111.581 77.185C112.552 75.6197 113.269 73.5678 113.733 71.0294C114.239 68.4487 114.492 65.2968 114.492 61.5738Z" fill="#C4EE4A"/>
<path d="M201 42.0915V58.9719C201 65.6141 200.22 71.389 198.659 76.2966C197.14 81.2042 194.946 85.2656 192.077 88.481C189.25 91.6963 185.875 94.0866 181.952 95.652C178.028 97.2173 173.704 98 168.978 98C165.181 98 161.638 97.5135 158.347 96.5404C155.056 95.525 152.082 94.002 149.424 91.9713C146.808 89.8982 144.551 87.3175 142.652 84.2291C140.754 81.1407 139.298 77.5023 138.286 73.314C137.273 69.0833 136.767 64.3026 136.767 58.9719V42.0915C136.767 35.407 137.526 29.6322 139.045 24.7669C140.606 19.8593 142.821 15.7978 145.69 12.5825C148.559 9.36718 151.955 6.97684 155.879 5.41149C159.802 3.84614 164.127 3.06346 168.852 3.06346C172.649 3.06346 176.172 3.57114 179.42 4.58651C182.711 5.55956 185.685 7.08261 188.343 9.15564C191.001 11.1864 193.258 13.7459 195.115 16.8343C197.013 19.9227 198.469 23.5823 199.481 27.813C200.494 32.0013 201 36.7609 201 42.0915ZM179.673 61.5738V39.3627C179.673 36.4012 179.505 33.8205 179.167 31.6206C178.872 29.4206 178.408 27.5591 177.775 26.0361C177.184 24.513 176.446 23.2861 175.56 22.3554C174.674 21.3823 173.661 20.6843 172.522 20.2612C171.425 19.7958 170.202 19.5631 168.852 19.5631C167.164 19.5631 165.645 19.9227 164.295 20.642C162.988 21.3189 161.87 22.4188 160.941 23.9419C160.013 25.4649 159.296 27.4957 158.79 30.0341C158.326 32.5725 158.094 35.682 158.094 39.3627V61.5738C158.094 64.5776 158.241 67.2006 158.537 69.4429C158.874 71.6428 159.338 73.5255 159.929 75.0909C160.562 76.6139 161.321 77.8619 162.207 78.835C163.093 79.7657 164.106 80.4427 165.245 80.8657C166.384 81.2888 167.628 81.5003 168.978 81.5003C170.624 81.5003 172.1 81.1619 173.408 80.485C174.716 79.8081 175.834 78.7081 176.762 77.185C177.733 75.6197 178.45 73.5678 178.914 71.0294C179.42 68.4487 179.673 65.2968 179.673 61.5738Z" fill="#C4EE4A"/>
</g>
<defs>
<filter id="filter0_d_0_1126" x="0" y="0" width="217" height="115" filterUnits="userSpaceOnUse" color-interpolation-filters="sRGB">
<feFlood flood-opacity="0" result="BackgroundImageFix"/>
<feColorMatrix in="SourceAlpha" type="matrix" values="0 0 0 0 0 0 0 0 0 0 0 0 0 0 0 0 0 0 127 0" result="hardAlpha"/>
<feOffset dx="6" dy="7"/>
<feGaussianBlur stdDeviation="5"/>
<feComposite in2="hardAlpha" operator="out"/>
<feColorMatrix type="matrix" values="0 0 0 0 0 0 0 0 0 0 0 0 0 0 0 0 0 0 0.25 0"/>
<feBlend mode="normal" in2="BackgroundImageFix" result="effect1_dropShadow_0_1126"/>
<feBlend mode="normal" in="SourceGraphic" in2="effect1_dropShadow_0_1126" result="shape"/>
</filter>
</defs>
</svg>
