<svg width="143" height="113" viewBox="0 0 143 113" fill="none" xmlns="http://www.w3.org/2000/svg">
<g filter="url(#filter0_d_0_1130)">
<path d="M21.8286 54.4111L5.7421 50.4946L11.0242 4.24332H62.1048V20.5307H27.5309L25.5501 38.4967C26.5105 37.9164 28.1311 37.2326 30.4121 36.4452C32.733 35.6163 35.294 35.2019 38.0952 35.2019C42.4169 35.2019 46.2384 35.8857 49.5598 37.2533C52.9211 38.5795 55.7623 40.5481 58.0832 43.1591C60.4042 45.7286 62.1449 48.8991 63.3053 52.6705C64.5058 56.4418 65.1061 60.752 65.1061 65.6009C65.1061 69.4967 64.4858 73.268 63.2453 76.9151C62.0448 80.5207 60.1841 83.7741 57.6631 86.6751C55.182 89.5348 52.0408 91.8142 48.2392 93.5134C44.4377 95.1711 39.9359 96 34.7338 96C30.8522 96 27.0707 95.3783 23.3892 94.135C19.7077 92.8917 16.3864 91.1096 13.4252 88.7888C10.504 86.4265 8.18308 83.5876 6.46239 80.2721C4.78171 76.9151 3.96138 73.1644 4.0014 69.0201H24.3496C24.4697 71.2166 24.9699 73.123 25.8502 74.7393C26.7306 76.3556 27.911 77.6197 29.3916 78.5314C30.9123 79.4017 32.653 79.8369 34.6137 79.8369C36.6146 79.8369 38.2752 79.4225 39.5958 78.5936C40.9163 77.7647 41.9567 76.625 42.717 75.1745C43.4773 73.7239 44.0175 72.0662 44.3377 70.2012C44.6578 68.2948 44.8179 66.2848 44.8179 64.1711C44.8179 61.9332 44.5778 59.9231 44.0976 58.141C43.6574 56.359 42.9371 54.8463 41.9367 53.6029C40.9363 52.3182 39.6358 51.3442 38.0351 50.6811C36.4745 50.018 34.5937 49.6865 32.3929 49.6865C29.4717 49.6865 27.1707 50.2045 25.4901 51.2406C23.8094 52.2767 22.5889 53.3336 21.8286 54.4111Z" fill="#C4EE4A"/>
<path d="M127 41.2319V57.768C127 64.2747 126.26 69.9318 124.779 74.7393C123.339 79.5468 121.258 83.5254 118.537 86.6751C115.855 89.8249 112.654 92.1664 108.933 93.6999C105.211 95.2333 101.11 96 96.6277 96C93.0263 96 89.6649 95.5234 86.5437 94.5702C83.4224 93.5755 80.6013 92.0836 78.0803 90.0943C75.5993 88.0635 73.4584 85.5354 71.6577 82.51C69.8569 79.4846 68.4764 75.9205 67.516 71.8175C66.5556 67.6731 66.0754 62.99 66.0754 57.768V41.2319C66.0754 34.6838 66.7957 29.0267 68.2363 24.2607C69.7169 19.4532 71.8177 15.4746 74.5388 12.3249C77.2599 9.17513 80.4812 6.83356 84.2027 5.30013C87.9242 3.76671 92.0259 3 96.5077 3C100.109 3 103.45 3.49733 106.532 4.49198C109.653 5.44519 112.474 6.93717 114.995 8.96791C117.516 10.9572 119.657 13.4646 121.418 16.49C123.218 19.5154 124.599 23.1003 125.559 27.2447C126.52 31.3476 127 36.01 127 41.2319ZM106.772 60.3168V38.5588C106.772 35.6578 106.612 33.1297 106.292 30.9746C106.012 28.8195 105.571 26.996 104.971 25.504C104.411 24.012 103.711 22.8102 102.87 21.8984C102.03 20.9452 101.07 20.2614 99.9891 19.8469C98.9487 19.391 97.7882 19.1631 96.5077 19.1631C94.907 19.1631 93.4665 19.5154 92.1859 20.2199C90.9454 20.883 89.885 21.9606 89.0047 23.4525C88.1243 24.9445 87.444 26.9338 86.9638 29.4205C86.5237 31.9071 86.3036 34.9532 86.3036 38.5588V60.3168C86.3036 63.2594 86.4436 65.8289 86.7237 68.0254C87.0439 70.1805 87.484 72.0247 88.0443 73.5582C88.6445 75.0501 89.3648 76.2727 90.2051 77.2259C91.0455 78.1377 92.0059 78.8008 93.0863 79.2152C94.1667 79.6297 95.3472 79.8369 96.6277 79.8369C98.1884 79.8369 99.5889 79.5053 100.829 78.8422C102.07 78.1791 103.13 77.1016 104.011 75.6096C104.931 74.0762 105.611 72.0662 106.052 69.5795C106.532 67.0515 106.772 63.9639 106.772 60.3168Z" fill="#C4EE4A"/>
</g>
<defs>
<filter id="filter0_d_0_1130" x="0" y="0" width="143" height="113" filterUnits="userSpaceOnUse" color-interpolation-filters="sRGB">
<feFlood flood-opacity="0" result="BackgroundImageFix"/>
<feColorMatrix in="SourceAlpha" type="matrix" values="0 0 0 0 0 0 0 0 0 0 0 0 0 0 0 0 0 0 127 0" result="hardAlpha"/>
<feOffset dx="6" dy="7"/>
<feGaussianBlur stdDeviation="5"/>
<feComposite in2="hardAlpha" operator="out"/>
<feColorMatrix type="matrix" values="0 0 0 0 0 0 0 0 0 0 0 0 0 0 0 0 0 0 0.25 0"/>
<feBlend mode="normal" in2="BackgroundImageFix" result="effect1_dropShadow_0_1130"/>
<feBlend mode="normal" in="SourceGraphic" in2="effect1_dropShadow_0_1130" result="shape"/>
</filter>
</defs>
</svg>
