<svg width="197" height="56" viewBox="0 0 197 56" fill="none" xmlns="http://www.w3.org/2000/svg">
<g filter="url(#filter0_d_0_1129)">
<path d="M10.4548 4.27975V31.2844H4V4.27975H10.4548ZM20.8633 15.5193V20.527H8.61579V15.5193H20.8633ZM21.9115 4.27975V9.30603H8.61579V4.27975H21.9115Z" fill="#C4EE4A" fill-opacity="0.8" shape-rendering="crispEdges"/>
<path d="M30.0765 16.187V31.2844H23.8792V11.2164H29.6719L30.0765 16.187ZM35.9611 11.068L35.8508 16.8733C35.6056 16.8485 35.2746 16.8176 34.8578 16.7805C34.4409 16.7434 34.0915 16.7249 33.8096 16.7249C33.0862 16.7249 32.461 16.8114 31.9338 16.9845C31.4189 17.1453 30.9898 17.3926 30.6465 17.7264C30.3155 18.0479 30.0703 18.456 29.911 18.9505C29.7638 19.4451 29.6964 20.0201 29.7087 20.6754L28.5869 19.9335C28.5869 18.5858 28.7156 17.3617 28.9731 16.2612C29.2428 15.1484 29.6229 14.1901 30.1132 13.3864C30.6036 12.5703 31.1982 11.9459 31.897 11.5131C32.5958 11.068 33.3805 10.8454 34.2509 10.8454C34.5574 10.8454 34.8578 10.864 35.152 10.9011C35.4585 10.9382 35.7282 10.9938 35.9611 11.068Z" fill="#C4EE4A" fill-opacity="0.8" shape-rendering="crispEdges"/>
<path d="M47.3627 31.6553C45.7444 31.6553 44.2978 31.4019 43.0228 30.8949C41.7477 30.3756 40.6689 29.6646 39.7862 28.762C38.9157 27.8594 38.2476 26.8207 37.7817 25.6461C37.3281 24.4714 37.1013 23.2287 37.1013 21.9181V21.2133C37.1013 19.7419 37.3036 18.3818 37.7082 17.1329C38.1127 15.8717 38.7135 14.7713 39.5103 13.8315C40.3072 12.8918 41.3064 12.1623 42.5078 11.643C43.7093 11.1113 45.1069 10.8454 46.7007 10.8454C48.1105 10.8454 49.3733 11.0742 50.4889 11.5317C51.6046 11.9892 52.5486 12.6445 53.3209 13.4977C54.1056 14.3509 54.7002 15.3833 55.1047 16.5951C55.5216 17.8068 55.73 19.1669 55.73 20.6754V23.2164H39.4736V19.3029H49.6798V18.8207C49.6921 18.153 49.5756 17.5842 49.3304 17.1144C49.0975 16.6445 48.7542 16.2859 48.3006 16.0386C47.847 15.7913 47.2953 15.6677 46.6455 15.6677C45.9712 15.6677 45.4134 15.8161 44.9721 16.1128C44.543 16.4096 44.2058 16.8176 43.9606 17.3369C43.7277 17.8439 43.5622 18.4312 43.4641 19.0989C43.366 19.7666 43.317 20.4714 43.317 21.2133V21.9181C43.317 22.66 43.4151 23.3338 43.6112 23.9397C43.8196 24.5456 44.1139 25.0649 44.4939 25.4977C44.8862 25.9181 45.3521 26.2457 45.8915 26.4807C46.4432 26.7156 47.0685 26.8331 47.7673 26.8331C48.6132 26.8331 49.4469 26.6723 50.2683 26.3508C51.0897 26.0294 51.7946 25.4977 52.3831 24.7558L55.1967 28.1314C54.7921 28.7125 54.2159 29.2751 53.4681 29.8192C52.7325 30.3632 51.8498 30.8083 50.8199 31.1546C49.7901 31.4884 48.6377 31.6553 47.3627 31.6553Z" fill="#C4EE4A" fill-opacity="0.8" shape-rendering="crispEdges"/>
<path d="M67.8855 31.6553C66.2672 31.6553 64.8206 31.4019 63.5456 30.8949C62.2705 30.3756 61.1917 29.6646 60.309 28.762C59.4385 27.8594 58.7704 26.8207 58.3045 25.6461C57.8509 24.4714 57.6241 23.2287 57.6241 21.9181V21.2133C57.6241 19.7419 57.8264 18.3818 58.231 17.1329C58.6355 15.8717 59.2363 14.7713 60.0331 13.8315C60.83 12.8918 61.8292 12.1623 63.0307 11.643C64.2321 11.1113 65.6297 10.8454 67.2235 10.8454C68.6334 10.8454 69.8961 11.0742 71.0117 11.5317C72.1274 11.9892 73.0714 12.6445 73.8437 13.4977C74.6284 14.3509 75.223 15.3833 75.6275 16.5951C76.0444 17.8068 76.2528 19.1669 76.2528 20.6754V23.2164H59.9964V19.3029H70.2026V18.8207C70.2149 18.153 70.0984 17.5842 69.8532 17.1144C69.6203 16.6445 69.277 16.2859 68.8234 16.0386C68.3698 15.7913 67.8181 15.6677 67.1683 15.6677C66.494 15.6677 65.9362 15.8161 65.4949 16.1128C65.0658 16.4096 64.7286 16.8176 64.4834 17.3369C64.2505 17.8439 64.085 18.4312 63.9869 19.0989C63.8888 19.7666 63.8398 20.4714 63.8398 21.2133V21.9181C63.8398 22.66 63.9379 23.3338 64.134 23.9397C64.3424 24.5456 64.6367 25.0649 65.0167 25.4977C65.409 25.9181 65.8749 26.2457 66.4143 26.4807C66.966 26.7156 67.5913 26.8331 68.2901 26.8331C69.136 26.8331 69.9697 26.6723 70.7911 26.3508C71.6125 26.0294 72.3174 25.4977 72.9059 24.7558L75.7195 28.1314C75.3149 28.7125 74.7387 29.2751 73.9909 29.8192C73.2553 30.3632 72.3726 30.8083 71.3428 31.1546C70.3129 31.4884 69.1605 31.6553 67.8855 31.6553Z" fill="#C4EE4A" fill-opacity="0.8" shape-rendering="crispEdges"/>
<path d="M102.237 24.1066C102.237 23.6862 102.176 23.3091 102.053 22.9753C101.931 22.6291 101.704 22.3076 101.373 22.0108C101.042 21.7141 100.564 21.4173 99.9386 21.1206C99.3256 20.8114 98.5165 20.49 97.5112 20.1561C96.3342 19.7604 95.2002 19.3153 94.1091 18.8207C93.018 18.3138 92.0433 17.7264 91.1851 17.0587C90.327 16.3787 89.6465 15.5873 89.1439 14.6847C88.6412 13.7697 88.3899 12.7063 88.3899 11.4946C88.3899 10.3323 88.6474 9.28748 89.1623 8.36012C89.6772 7.4204 90.3944 6.62287 91.3139 5.96754C92.2456 5.29985 93.3367 4.79289 94.5872 4.44668C95.8377 4.0881 97.2047 3.90881 98.6881 3.90881C100.65 3.90881 102.378 4.25502 103.874 4.94745C105.382 5.62751 106.559 6.59815 107.405 7.85935C108.263 9.10819 108.692 10.5858 108.692 12.2921H102.274C102.274 11.6121 102.133 11.0124 101.851 10.493C101.581 9.97372 101.171 9.56569 100.619 9.26893C100.067 8.97218 99.3747 8.8238 98.541 8.8238C97.7318 8.8238 97.0514 8.94745 96.4997 9.19474C95.9481 9.44204 95.5312 9.77589 95.2492 10.1963C94.9673 10.6043 94.8263 11.0556 94.8263 11.5502C94.8263 11.9583 94.9366 12.3292 95.1573 12.6631C95.3902 12.9845 95.7151 13.2875 96.1319 13.5719C96.561 13.8563 97.0759 14.1283 97.6767 14.3879C98.2897 14.6476 98.9762 14.9011 99.7363 15.1484C101.158 15.6059 102.421 16.119 103.525 16.6878C104.64 17.2442 105.578 17.881 106.338 18.5981C107.111 19.3029 107.693 20.1066 108.085 21.0093C108.49 21.9119 108.692 22.932 108.692 24.0696C108.692 25.2813 108.459 26.357 107.993 27.2968C107.527 28.2365 106.859 29.034 105.989 29.6893C105.118 30.3323 104.076 30.8207 102.863 31.1546C101.649 31.4884 100.294 31.6553 98.7984 31.6553C97.4254 31.6553 96.0707 31.4822 94.7343 31.136C93.4103 30.7774 92.2088 30.2334 91.13 29.5039C90.0511 28.762 89.1868 27.8161 88.537 26.6662C87.8995 25.5039 87.5808 24.1252 87.5808 22.5301H94.0539C94.0539 23.3215 94.1581 23.9892 94.3665 24.5332C94.575 25.0773 94.8815 25.5162 95.286 25.8501C95.6906 26.1716 96.1871 26.4065 96.7756 26.5549C97.3641 26.6909 98.0383 26.7589 98.7984 26.7589C99.6198 26.7589 100.282 26.6414 100.785 26.4065C101.287 26.1592 101.655 25.8377 101.888 25.442C102.121 25.034 102.237 24.5889 102.237 24.1066Z" fill="#C4EE4A" fill-opacity="0.8" shape-rendering="crispEdges"/>
<path d="M117.979 15.0742V39H111.782V11.2164H117.556L117.979 15.0742ZM130.19 21.0093V21.3988C130.19 22.8578 130.024 24.2117 129.693 25.4606C129.362 26.7094 128.872 27.7975 128.222 28.7249C127.572 29.6522 126.763 30.3756 125.794 30.8949C124.838 31.4019 123.729 31.6553 122.466 31.6553C121.277 31.6553 120.253 31.3895 119.395 30.8578C118.537 30.3261 117.819 29.5904 117.243 28.6507C116.667 27.711 116.201 26.6352 115.846 25.4235C115.49 24.2117 115.208 22.932 115 21.5842V21.0835C115.208 19.6368 115.49 18.2952 115.846 17.0587C116.201 15.8099 116.667 14.7218 117.243 13.7944C117.819 12.8671 118.53 12.1437 119.376 11.6244C120.235 11.1051 121.258 10.8454 122.447 10.8454C123.71 10.8454 124.82 11.0866 125.776 11.5688C126.745 12.051 127.554 12.7434 128.203 13.6461C128.865 14.5363 129.362 15.6059 129.693 16.8547C130.024 18.1036 130.19 19.4884 130.19 21.0093ZM123.992 21.3988V21.0093C123.992 20.2303 123.937 19.5193 123.827 18.8764C123.716 18.221 123.539 17.6522 123.293 17.17C123.06 16.6878 122.748 16.3168 122.356 16.0572C121.963 15.7975 121.479 15.6677 120.903 15.6677C120.241 15.6677 119.683 15.7728 119.229 15.983C118.788 16.1808 118.432 16.49 118.163 16.9104C117.905 17.3184 117.721 17.8315 117.611 18.4498C117.513 19.0556 117.47 19.7666 117.482 20.5827V22.1036C117.458 23.0433 117.55 23.8717 117.758 24.5889C117.967 25.2937 118.328 25.8439 118.843 26.2396C119.358 26.6352 120.057 26.8331 120.94 26.8331C121.528 26.8331 122.018 26.6971 122.411 26.425C122.803 26.1406 123.116 25.7512 123.349 25.2566C123.582 24.7496 123.747 24.1685 123.845 23.5131C123.943 22.8578 123.992 22.153 123.992 21.3988Z" fill="#C4EE4A" fill-opacity="0.8" shape-rendering="crispEdges"/>
<path d="M139.495 11.2164V31.2844H133.279V11.2164H139.495ZM132.911 6.04173C132.911 5.15147 133.23 4.42195 133.867 3.85317C134.505 3.28439 135.332 3 136.35 3C137.368 3 138.195 3.28439 138.833 3.85317C139.47 4.42195 139.789 5.15147 139.789 6.04173C139.789 6.93199 139.47 7.66151 138.833 8.23029C138.195 8.79907 137.368 9.08346 136.35 9.08346C135.332 9.08346 134.505 8.79907 133.867 8.23029C133.23 7.66151 132.911 6.93199 132.911 6.04173Z" fill="#C4EE4A" fill-opacity="0.8" shape-rendering="crispEdges"/>
<path d="M149.407 15.5008V31.2844H143.209V11.2164H149.02L149.407 15.5008ZM148.671 20.5641L147.218 20.6012C147.218 19.068 147.402 17.7017 147.77 16.5023C148.138 15.2906 148.659 14.2643 149.333 13.4235C150.007 12.5827 150.81 11.9459 151.742 11.5131C152.686 11.068 153.734 10.8454 154.887 10.8454C155.806 10.8454 156.646 10.9815 157.406 11.2535C158.178 11.5255 158.841 11.9645 159.392 12.5703C159.956 13.1762 160.385 13.9799 160.679 14.9815C160.986 15.9706 161.139 17.1947 161.139 18.6538V31.2844H154.905V18.6352C154.905 17.8315 154.795 17.2195 154.574 16.7991C154.353 16.3663 154.035 16.0696 153.618 15.9088C153.201 15.7481 152.692 15.6677 152.092 15.6677C151.454 15.6677 150.915 15.7913 150.473 16.0386C150.032 16.2859 149.676 16.6321 149.407 17.0773C149.149 17.51 148.959 18.0232 148.837 18.6167C148.726 19.2102 148.671 19.8594 148.671 20.5641Z" fill="#C4EE4A" fill-opacity="0.8" shape-rendering="crispEdges"/>
<path d="M175.005 25.6461C175.005 25.2998 174.889 25.0031 174.656 24.7558C174.435 24.4961 174.043 24.2612 173.479 24.051C172.915 23.8284 172.124 23.6059 171.106 23.3833C170.138 23.1731 169.225 22.8949 168.366 22.5487C167.52 22.2025 166.779 21.7821 166.141 21.2875C165.504 20.7929 165.001 20.2056 164.633 19.5255C164.278 18.8454 164.1 18.0665 164.1 17.1886C164.1 16.3354 164.278 15.5317 164.633 14.7774C165.001 14.0108 165.534 13.3369 166.233 12.7558C166.944 12.1623 167.809 11.6986 168.826 11.3648C169.844 11.0185 171.002 10.8454 172.302 10.8454C174.092 10.8454 175.636 11.1236 176.936 11.6801C178.235 12.2241 179.235 12.9907 179.933 13.9799C180.644 14.9567 181 16.0881 181 17.374H174.803C174.803 16.8671 174.717 16.4343 174.545 16.0757C174.386 15.7172 174.122 15.4451 173.754 15.2597C173.387 15.0618 172.896 14.9629 172.283 14.9629C171.854 14.9629 171.462 15.0433 171.106 15.204C170.763 15.3648 170.487 15.5873 170.279 15.8717C170.07 16.1561 169.966 16.49 169.966 16.8733C169.966 17.1453 170.028 17.3926 170.15 17.6151C170.285 17.8253 170.487 18.0232 170.757 18.2087C171.027 18.3818 171.37 18.5425 171.787 18.6909C172.204 18.8269 172.706 18.9505 173.295 19.0618C174.631 19.3091 175.882 19.6615 177.046 20.119C178.211 20.5765 179.155 21.2257 179.878 22.0665C180.614 22.9073 180.982 24.0386 180.982 25.4606C180.982 26.3508 180.779 27.1731 180.375 27.9274C179.97 28.6692 179.388 29.3246 178.628 29.8934C177.868 30.4498 176.954 30.8825 175.888 31.1917C174.821 31.5008 173.62 31.6553 172.283 31.6553C170.383 31.6553 168.777 31.3153 167.465 30.6352C166.153 29.9428 165.16 29.0773 164.486 28.0386C163.824 26.9876 163.493 25.9243 163.493 24.8485H169.267C169.292 25.4668 169.439 25.9737 169.709 26.3694C169.991 26.7651 170.365 27.0556 170.831 27.2411C171.296 27.4266 171.836 27.5193 172.449 27.5193C173.013 27.5193 173.479 27.4389 173.846 27.2782C174.226 27.1175 174.515 26.9011 174.711 26.6291C174.907 26.3447 175.005 26.017 175.005 25.6461Z" fill="#C4EE4A" fill-opacity="0.8" shape-rendering="crispEdges"/>
</g>
<defs>
<filter id="filter0_d_0_1129" x="0" y="0" width="197" height="56" filterUnits="userSpaceOnUse" color-interpolation-filters="sRGB">
<feFlood flood-opacity="0" result="BackgroundImageFix"/>
<feColorMatrix in="SourceAlpha" type="matrix" values="0 0 0 0 0 0 0 0 0 0 0 0 0 0 0 0 0 0 127 0" result="hardAlpha"/>
<feOffset dx="6" dy="7"/>
<feGaussianBlur stdDeviation="5"/>
<feComposite in2="hardAlpha" operator="out"/>
<feColorMatrix type="matrix" values="0 0 0 0 0 0 0 0 0 0 0 0 0 0 0 0 0 0 0.25 0"/>
<feBlend mode="normal" in2="BackgroundImageFix" result="effect1_dropShadow_0_1129"/>
<feBlend mode="normal" in="SourceGraphic" in2="effect1_dropShadow_0_1129" result="shape"/>
</filter>
</defs>
</svg>
