<svg width="25" height="30" viewBox="0 0 25 30" fill="none" xmlns="http://www.w3.org/2000/svg">
<path fill-rule="evenodd" clip-rule="evenodd" d="M20.3528 14.1048C20.3444 11.9975 20.3045 9.87726 20.4277 7.77827C20.5111 6.34666 21.2383 2.71921 21.0679 1.77426C19.1183 -0.583409 5.33794 -0.598765 3.38467 1.77426C3.21556 2.70976 3.94033 6.34784 4.02489 7.77473C4.14931 9.87017 4.10945 11.9975 4.09978 14.1059C1.72132 13.774 0.229492 13.7091 0.229492 14.9174C0.229492 17.2113 5.49497 20.1962 12.117 20.1962C18.7402 20.1962 24.2135 17.2113 24.2135 14.9174C24.2135 13.7102 22.7265 13.774 20.3528 14.1048ZM18.8586 14.5323C18.8658 14.5453 18.8707 14.5583 18.8707 14.5713C18.8707 14.9387 16.0018 15.7821 12.3344 15.7821C8.66586 15.7821 5.58799 14.9387 5.58799 14.5713C5.58799 14.5583 5.59282 14.5453 5.60007 14.5323C5.80904 14.9174 8.79632 15.7017 12.3344 15.7017C15.8689 15.7017 18.6617 14.9186 18.8586 14.5323ZM18.472 1.51203L17.9043 13.7197L19.2198 13.7634C19.2125 13.7634 19.7017 3.13617 20.2743 2.01876C19.3865 1.64314 20.0134 1.87111 18.4563 1.36084L18.4576 1.36793C17.7968 1.2002 16.9355 1.05963 15.8278 0.904897C15.8351 0.932064 15.8375 0.959232 15.8363 0.986399C16.9222 1.13877 17.8065 1.28288 18.466 1.45061L18.472 1.51203ZM7.22718 2.6448C7.26101 4.68945 7.37697 11.362 7.43495 13.1196C9.11763 13.0499 9.59599 13.0476 9.59599 13.0476L9.30366 1.32658C7.58595 1.19665 6.57972 1.44825 4.91032 1.90773C4.92723 1.92899 4.94052 1.9538 4.95019 1.97978C5.81387 1.74236 6.58213 1.57463 7.20423 1.47069C7.22718 2.6448 7.20423 1.47069 7.22718 2.6448Z" fill="#FEFEFE"/>
<path fill-rule="evenodd" clip-rule="evenodd" d="M6.71982 29.9422C9.68053 30.2812 11.0008 29.0917 12.3211 27.9837C13.6402 29.0917 14.9617 30.2812 17.9212 29.9422C26.7357 28.8625 24.2666 21.4139 21.7202 21.6218C21.2576 21.7588 21.4569 22.451 21.5765 22.6743C22.044 21.9667 22.2433 22.1238 22.3459 22.3801C24.4261 28.4432 17.3547 24.1437 15.2432 23.1172C13.7984 22.4144 13.5339 22.5089 12.3211 23.3357C11.1071 22.5089 10.8426 22.4144 9.39786 23.1172C7.28756 24.1437 0.216187 28.4432 2.29508 22.3801C2.39776 22.1238 2.59707 21.9667 3.06455 22.6743C3.18414 22.451 3.38345 21.7588 2.92201 21.6218C0.374429 21.4139 -2.09343 28.8625 6.71982 29.9422Z" fill="#FEFEFE"/>
</svg>
