<svg width="146" height="30" viewBox="0 0 146 30" fill="none" xmlns="http://www.w3.org/2000/svg">
<path d="M23.9674 7.95063V0.655563H0.117493V29.3456H10.0094V20.1642H22.2485V12.8691H10.0094V7.95063H23.9674ZM45.1755 21.4765C43.9603 21.9679 42.7873 22.1734 41.5709 22.1734C37.3382 22.1734 34.572 19.3043 34.572 15C34.572 10.5741 37.3382 7.82778 41.6966 7.82778C44.2961 7.82778 46.4329 8.89322 48.2775 10.9839L54.6072 5.53272C51.6308 1.96669 46.9789 0 41.194 0C31.5123 0 24.5955 6.18828 24.5955 15C24.5955 23.8129 31.5123 30.0012 40.9851 30.0012C45.3023 30.0012 50.2054 28.7314 53.7689 26.3537V14.2216H45.1755V21.4765ZM80.7208 7.95063V0.655563H56.8709V29.3456H66.7628V20.1642H79.0019V12.8691H66.7628V7.95063H80.7208ZM97.9052 30.0012C107.463 30.0012 114.461 23.6901 114.461 15C114.461 6.31113 107.463 0 97.9052 0C88.349 0 81.3489 6.31113 81.3489 15C81.3489 23.6901 88.349 30.0012 97.9052 30.0012ZM97.9052 22.1734C94.2596 22.1734 91.3254 19.4685 91.3254 15C91.3254 10.5327 94.2596 7.82778 97.9052 7.82778C101.552 7.82778 104.486 10.5327 104.486 15C104.486 19.4685 101.552 22.1734 97.9052 22.1734ZM145.772 29.3456L134.958 14.5086L145.144 0.655563H134.497L129.635 7.86912L124.647 0.655563H113.54L123.766 14.8772L113.162 29.3456H124.437L129.383 21.6808L134.454 29.3456H145.772Z" fill="#FEFEFE"/>
</svg>
